<svg width="512" height="512" viewBox="0 0 512 512" fill="none" xmlns="http://www.w3.org/2000/svg">
<rect width="512" height="512" rx="100" fill="#F25939"/>
<path d="M387.263 124.781C372.435 109.955 352.324 101.625 331.354 101.625C310.385 101.625 290.274 109.955 275.445 124.781L124.781 275.43C110.265 290.32 102.2 310.329 102.333 331.123C102.466 351.917 110.786 371.821 125.491 386.524C140.195 401.227 160.101 409.544 180.895 409.674C201.689 409.804 221.697 401.737 236.584 387.219L387.263 236.57C402.063 221.732 410.374 201.632 410.374 180.675C410.374 159.719 402.063 139.618 387.263 124.781ZM370.46 219.781L295.128 295.098L216.916 216.902L292.248 141.57C302.661 131.397 316.664 125.74 331.22 125.826C345.777 125.911 359.713 131.731 370.006 142.024C380.299 152.317 386.119 166.253 386.204 180.809C386.289 195.366 380.632 209.369 370.46 219.781ZM347.556 188.223C348.66 189.326 349.536 190.636 350.134 192.078C350.731 193.519 351.039 195.064 351.039 196.625C351.039 198.186 350.731 199.731 350.134 201.172C349.536 202.614 348.66 203.924 347.556 205.027L311.931 240.652C310.828 241.754 309.518 242.628 308.077 243.224C306.636 243.821 305.091 244.127 303.532 244.126C301.972 244.126 300.428 243.818 298.987 243.22C297.547 242.623 296.238 241.747 295.136 240.644C294.033 239.541 293.159 238.231 292.563 236.79C291.967 235.349 291.66 233.804 291.661 232.245C291.661 230.685 291.969 229.141 292.567 227.7C293.164 226.26 294.04 224.951 295.143 223.848L330.768 188.223C332.995 185.998 336.014 184.748 339.162 184.748C342.31 184.748 345.329 185.998 347.556 188.223Z" fill="white"/>
</svg>
